<svg id="svg" version="1.1" xmlns="http://www.w3.org/2000/svg" xmlns:xlink="http://www.w3.org/1999/xlink" width="400" height="407.11111111111114" viewBox="0, 0, 400,407.11111111111114"><g id="svgg"><path id="path0" d="M38.333 10.630 C 38.226 11.573,38.025 11.781,37.300 11.705 C 36.579 11.628,36.400 11.810,36.400 12.622 C 36.400 13.365,36.213 13.604,35.700 13.518 C 35.139 13.423,34.975 13.739,34.877 15.100 C 34.767 16.615,34.645 16.800,33.752 16.800 C 33.037 16.800,32.770 17.001,32.821 17.500 C 33.029 19.542,32.786 20.400,32.000 20.400 C 31.319 20.400,31.200 20.667,31.200 22.200 C 31.200 23.853,31.119 24.000,30.200 24.000 C 29.467 24.000,29.200 24.213,29.200 24.800 C 29.200 25.516,28.784 25.787,27.900 25.647 C 27.735 25.621,27.600 26.469,27.600 27.532 C 27.600 29.273,27.512 29.460,26.707 29.432 C 26.185 29.413,25.795 29.649,25.768 30.000 C 25.743 30.330,25.694 31.074,25.661 31.653 C 25.621 32.339,25.321 32.780,24.800 32.916 C 24.321 33.041,24.000 33.462,24.000 33.963 C 24.000 34.533,23.745 34.800,23.200 34.800 C 22.537 34.800,22.400 35.067,22.400 36.357 C 22.400 37.683,22.252 37.950,21.400 38.164 C 20.524 38.384,20.400 38.632,20.400 40.163 C 20.400 41.582,20.268 41.901,19.700 41.856 C 19.155 41.812,18.956 42.199,18.800 43.601 C 18.631 45.121,18.469 45.395,17.757 45.358 C 17.140 45.326,16.925 45.541,16.957 46.157 C 16.987 46.743,16.726 47.039,16.100 47.128 C 15.321 47.238,15.200 47.495,15.200 49.028 C 15.200 50.497,15.071 50.800,14.447 50.800 C 13.676 50.800,13.216 51.809,13.205 53.518 C 13.202 54.168,12.996 54.401,12.500 54.318 C 12.037 54.240,11.758 54.497,11.675 55.075 C 11.598 55.621,11.221 55.998,10.675 56.075 L 9.800 56.200 9.800 199.000 L 9.800 341.800 10.700 341.928 C 11.265 342.008,11.600 342.333,11.600 342.800 C 11.600 343.267,11.935 343.592,12.500 343.672 C 13.176 343.768,13.369 344.024,13.275 344.700 L 13.150 345.600 55.975 345.600 L 98.800 345.600 98.800 369.600 C 98.800 393.333,98.809 393.600,99.600 393.600 C 100.133 393.600,100.400 393.867,100.400 394.400 C 100.400 394.981,100.667 395.200,101.372 395.200 C 102.076 395.200,102.380 395.449,102.472 396.100 L 102.600 397.000 133.400 397.000 L 164.200 397.000 164.328 396.100 C 164.438 395.321,164.695 395.200,166.228 395.200 C 167.733 395.200,168.000 395.080,168.000 394.400 C 168.000 393.867,168.267 393.600,168.800 393.600 C 169.387 393.600,169.600 393.333,169.600 392.600 C 169.600 391.800,169.800 391.600,170.600 391.600 C 171.333 391.600,171.600 391.387,171.600 390.800 C 171.600 390.267,171.867 390.000,172.400 390.000 C 172.987 390.000,173.200 389.733,173.200 389.000 C 173.200 388.200,173.400 388.000,174.200 388.000 C 174.933 388.000,175.200 387.787,175.200 387.200 C 175.200 386.667,175.467 386.400,176.000 386.400 C 176.587 386.400,176.800 386.133,176.800 385.400 C 176.800 384.600,177.000 384.400,177.800 384.400 C 178.590 384.400,178.800 384.198,178.800 383.437 C 178.800 382.672,178.964 382.518,179.600 382.684 C 180.214 382.845,180.400 382.696,180.400 382.047 C 180.400 381.310,180.634 381.200,182.200 381.200 C 183.853 381.200,184.000 381.119,184.000 380.200 C 184.000 379.467,184.213 379.200,184.800 379.200 C 185.333 379.200,185.600 378.933,185.600 378.400 C 185.600 377.813,185.867 377.600,186.600 377.600 C 187.400 377.600,187.600 377.400,187.600 376.600 C 187.600 375.867,187.813 375.600,188.400 375.600 C 188.840 375.600,189.179 375.465,189.153 375.300 C 188.966 374.116,189.260 373.722,190.200 373.902 C 191.061 374.067,191.200 373.947,191.200 373.047 C 191.200 372.267,191.404 372.000,192.000 372.000 C 192.533 372.000,192.800 371.733,192.800 371.200 C 192.800 370.613,193.067 370.400,193.800 370.400 C 194.588 370.400,194.800 370.197,194.800 369.444 C 194.800 368.780,195.013 368.506,195.500 368.544 C 195.943 368.580,196.247 368.270,196.328 367.700 C 196.412 367.105,196.730 366.800,197.265 366.800 C 197.738 366.800,198.162 366.468,198.284 366.000 C 198.448 365.373,198.830 365.200,200.047 365.200 C 201.437 365.200,201.600 365.095,201.600 364.200 C 201.600 363.400,201.800 363.200,202.600 363.200 C 203.333 363.200,203.600 362.987,203.600 362.400 C 203.600 361.867,203.867 361.600,204.400 361.600 C 204.987 361.600,205.200 361.333,205.200 360.600 C 205.200 359.800,205.400 359.600,206.200 359.600 C 206.933 359.600,207.200 359.387,207.200 358.800 C 207.200 358.267,207.467 358.000,208.000 358.000 C 208.587 358.000,208.800 357.733,208.800 357.000 C 208.800 356.200,209.000 356.000,209.800 356.000 C 210.533 356.000,210.800 355.787,210.800 355.200 C 210.800 354.667,211.067 354.400,211.600 354.400 C 212.133 354.400,212.400 354.133,212.400 353.600 C 212.400 353.160,212.580 352.778,212.800 352.750 C 213.020 352.723,213.425 352.678,213.700 352.650 C 213.975 352.623,214.222 352.375,214.250 352.100 C 214.278 351.825,214.322 351.420,214.350 351.200 C 214.378 350.980,214.760 350.800,215.200 350.800 C 215.733 350.800,216.000 350.533,216.000 350.000 C 216.000 349.319,216.267 349.200,217.800 349.200 C 219.453 349.200,219.600 349.119,219.600 348.200 C 219.600 347.467,219.813 347.200,220.400 347.200 C 220.933 347.200,221.200 346.933,221.200 346.400 C 221.200 345.606,221.467 345.600,257.800 345.600 L 294.400 345.600 294.400 344.600 C 294.400 343.867,294.613 343.600,295.200 343.600 C 295.733 343.600,296.000 343.333,296.000 342.800 C 296.000 342.267,296.267 342.000,296.800 342.000 C 297.387 342.000,297.600 341.733,297.600 341.000 C 297.600 340.081,297.747 340.000,299.400 340.000 C 300.933 340.000,301.200 339.881,301.200 339.200 C 301.200 338.613,301.467 338.400,302.200 338.400 C 302.913 338.400,303.200 338.184,303.200 337.647 C 303.200 337.230,303.557 336.800,304.000 336.684 C 304.468 336.562,304.800 336.138,304.800 335.665 C 304.800 335.130,305.105 334.812,305.700 334.728 C 306.311 334.641,306.592 334.335,306.576 333.776 C 306.560 333.197,306.797 332.960,307.376 332.976 C 307.928 332.992,308.241 332.711,308.325 332.125 C 308.402 331.579,308.779 331.202,309.325 331.125 C 309.863 331.048,310.247 330.670,310.322 330.143 C 310.412 329.514,310.651 329.341,311.222 329.490 C 311.846 329.653,312.000 329.486,312.000 328.647 C 312.000 327.867,312.204 327.600,312.800 327.600 C 313.333 327.600,313.600 327.333,313.600 326.800 C 313.600 326.213,313.867 326.000,314.600 326.000 C 315.400 326.000,315.600 325.800,315.600 325.000 C 315.600 324.267,315.813 324.000,316.400 324.000 C 316.933 324.000,317.200 323.733,317.200 323.200 C 317.200 322.613,317.467 322.400,318.200 322.400 C 318.923 322.400,319.200 322.185,319.200 321.623 C 319.200 320.995,319.526 320.822,320.900 320.723 C 322.313 320.621,322.622 320.448,322.728 319.700 C 322.810 319.122,323.132 318.800,323.628 318.800 C 324.124 318.800,324.400 318.524,324.400 318.028 C 324.400 317.532,324.722 317.210,325.300 317.128 C 325.878 317.046,326.246 316.678,326.328 316.100 C 326.410 315.522,326.732 315.200,327.228 315.200 C 327.733 315.200,328.000 314.924,328.000 314.400 C 328.000 313.867,328.267 313.600,328.800 313.600 C 329.387 313.600,329.600 313.333,329.600 312.600 C 329.600 311.800,329.800 311.600,330.600 311.600 C 331.333 311.600,331.600 311.387,331.600 310.800 C 331.600 310.267,331.867 310.000,332.400 310.000 C 332.933 310.000,333.200 309.733,333.200 309.200 C 333.200 308.613,333.467 308.400,334.200 308.400 C 335.000 308.400,335.200 308.200,335.200 307.400 C 335.200 306.667,335.413 306.400,336.000 306.400 C 336.524 306.400,336.800 306.133,336.800 305.628 C 336.800 305.132,337.122 304.810,337.700 304.728 C 338.278 304.646,338.646 304.278,338.728 303.700 C 338.810 303.122,339.132 302.800,339.628 302.800 C 340.124 302.800,340.400 302.524,340.400 302.028 C 340.400 301.532,340.722 301.210,341.300 301.128 C 341.878 301.046,342.246 300.678,342.328 300.100 C 342.436 299.341,342.702 299.200,344.028 299.200 C 345.333 299.200,345.600 299.064,345.600 298.400 C 345.600 297.813,345.867 297.600,346.600 297.600 C 347.400 297.600,347.600 297.400,347.600 296.600 C 347.600 295.867,347.813 295.600,348.400 295.600 C 348.933 295.600,349.200 295.333,349.200 294.800 C 349.200 294.213,349.467 294.000,350.200 294.000 C 350.913 294.000,351.200 293.784,351.200 293.247 C 351.200 292.830,351.557 292.400,352.000 292.284 C 352.468 292.162,352.800 291.738,352.800 291.265 C 352.800 290.730,353.105 290.412,353.700 290.328 C 354.311 290.241,354.592 289.935,354.576 289.376 C 354.560 288.797,354.797 288.560,355.376 288.576 C 355.935 288.592,356.241 288.311,356.328 287.700 C 356.412 287.105,356.730 286.800,357.265 286.800 C 357.738 286.800,358.162 286.468,358.284 286.000 C 358.400 285.557,358.830 285.200,359.247 285.200 C 359.784 285.200,360.000 284.913,360.000 284.200 C 360.000 283.467,360.213 283.200,360.800 283.200 C 361.333 283.200,361.600 282.933,361.600 282.400 C 361.600 281.813,361.867 281.600,362.600 281.600 C 363.400 281.600,363.600 281.400,363.600 280.600 C 363.600 279.681,363.747 279.600,365.400 279.600 C 366.933 279.600,367.200 279.481,367.200 278.800 C 367.200 278.267,367.467 278.000,368.000 278.000 C 368.524 278.000,368.800 277.733,368.800 277.228 C 368.800 276.732,369.122 276.410,369.700 276.328 C 370.278 276.246,370.646 275.878,370.728 275.300 C 370.810 274.722,371.132 274.400,371.628 274.400 C 372.124 274.400,372.400 274.124,372.400 273.628 C 372.400 273.132,372.722 272.810,373.300 272.728 C 373.795 272.658,374.223 272.375,374.250 272.100 C 374.278 271.825,374.322 271.420,374.350 271.200 C 374.378 270.980,374.760 270.800,375.200 270.800 C 375.733 270.800,376.000 270.533,376.000 270.000 C 376.000 269.467,376.267 269.200,376.800 269.200 C 377.387 269.200,377.600 268.933,377.600 268.200 C 377.600 267.400,377.800 267.200,378.600 267.200 C 379.333 267.200,379.600 266.987,379.600 266.400 C 379.600 265.867,379.867 265.600,380.400 265.600 C 380.987 265.600,381.200 265.333,381.200 264.600 C 381.200 263.800,381.400 263.600,382.200 263.600 C 382.933 263.600,383.200 263.387,383.200 262.800 C 383.200 262.267,383.467 262.000,384.000 262.000 C 384.524 262.000,384.800 261.733,384.800 261.228 C 384.800 260.732,385.122 260.410,385.700 260.328 C 386.278 260.246,386.646 259.878,386.728 259.300 C 386.810 258.722,387.132 258.400,387.628 258.400 C 388.124 258.400,388.400 258.124,388.400 257.628 C 388.400 257.132,388.722 256.810,389.300 256.728 L 390.200 256.600 390.200 135.000 L 390.200 13.400 389.300 13.272 C 388.722 13.190,388.400 12.868,388.400 12.372 C 388.400 11.876,388.124 11.600,387.628 11.600 C 387.163 11.600,386.805 11.280,386.728 10.794 L 386.600 9.988 212.900 9.894 C 97.307 9.831,39.198 9.934,39.194 10.200 C 39.191 10.420,39.025 10.344,38.827 10.030 C 38.558 9.605,38.433 9.756,38.333 10.630 M328.000 144.800 C 328.000 224.533,327.997 224.800,327.200 224.800 C 326.676 224.800,326.400 225.067,326.400 225.572 C 326.400 226.068,326.078 226.390,325.500 226.472 C 324.922 226.554,324.554 226.922,324.472 227.500 C 324.390 228.078,324.068 228.400,323.572 228.400 C 323.076 228.400,322.800 228.676,322.800 229.172 C 322.800 229.668,322.478 229.990,321.900 230.072 C 321.309 230.156,321.000 230.475,321.000 231.000 C 321.000 231.525,320.691 231.844,320.100 231.928 C 319.522 232.010,319.200 232.332,319.200 232.828 C 319.200 233.379,318.922 233.600,318.228 233.600 C 317.524 233.600,317.220 233.849,317.128 234.500 C 317.047 235.070,316.743 235.380,316.300 235.344 C 315.819 235.306,315.600 235.579,315.600 236.217 C 315.600 236.874,315.338 237.182,314.700 237.272 C 314.099 237.358,313.839 237.633,313.918 238.100 C 314.004 238.614,313.765 238.800,313.018 238.800 C 312.199 238.800,312.000 238.995,312.000 239.800 C 312.000 240.533,311.787 240.800,311.200 240.800 C 310.676 240.800,310.400 241.067,310.400 241.572 C 310.400 242.068,310.078 242.390,309.500 242.472 C 308.922 242.554,308.554 242.922,308.472 243.500 C 308.390 244.078,308.068 244.400,307.572 244.400 C 307.076 244.400,306.800 244.676,306.800 245.172 C 306.800 245.668,306.478 245.990,305.900 246.072 C 305.322 246.154,304.954 246.522,304.872 247.100 C 304.790 247.678,304.468 248.000,303.972 248.000 C 303.467 248.000,303.200 248.276,303.200 248.800 C 303.200 249.387,302.933 249.600,302.200 249.600 C 301.406 249.600,301.200 249.802,301.200 250.577 C 301.200 251.339,301.024 251.520,300.400 251.400 C 299.781 251.281,299.600 251.461,299.600 252.195 C 299.600 252.875,299.345 253.181,298.700 253.272 C 298.109 253.356,297.800 253.675,297.800 254.200 C 297.800 254.725,297.491 255.044,296.900 255.128 C 296.322 255.210,296.000 255.532,296.000 256.028 C 296.000 256.533,295.724 256.800,295.200 256.800 C 294.676 256.800,294.400 257.067,294.400 257.572 C 294.400 258.068,294.078 258.390,293.500 258.472 C 292.922 258.554,292.554 258.922,292.472 259.500 C 292.390 260.078,292.068 260.400,291.572 260.400 C 291.076 260.400,290.800 260.676,290.800 261.172 C 290.800 261.668,290.478 261.990,289.900 262.072 C 289.322 262.154,288.954 262.522,288.872 263.100 C 288.757 263.912,288.363 264.184,287.500 264.047 C 287.335 264.021,287.200 264.360,287.200 264.800 C 287.200 265.396,286.933 265.600,286.153 265.600 C 285.251 265.600,285.133 265.739,285.299 266.607 L 285.492 267.614 244.046 267.600 C 221.251 267.592,202.395 267.589,202.144 267.593 C 201.894 267.597,201.714 267.915,201.744 268.300 C 201.792 268.894,201.383 269.018,199.057 269.119 C 196.391 269.235,196.319 269.266,196.500 270.213 C 196.664 271.068,196.571 271.158,195.743 270.950 C 194.933 270.747,194.800 270.860,194.800 271.757 C 194.800 272.603,194.611 272.800,193.800 272.800 C 193.067 272.800,192.800 273.013,192.800 273.600 C 192.800 274.133,192.533 274.400,192.000 274.400 C 191.413 274.400,191.200 274.667,191.200 275.400 C 191.200 276.114,190.984 276.400,190.443 276.400 C 189.978 276.400,189.594 276.770,189.445 277.363 C 189.263 278.088,189.004 278.274,188.398 278.115 C 187.741 277.944,187.612 278.079,187.696 278.852 C 187.762 279.457,187.583 279.820,187.200 279.854 C 186.870 279.883,186.395 279.928,186.144 279.954 C 185.894 279.979,185.714 280.315,185.744 280.700 C 185.780 281.143,185.470 281.447,184.900 281.528 C 184.335 281.608,184.000 281.933,184.000 282.401 C 184.000 282.811,183.640 283.260,183.200 283.400 C 182.760 283.540,182.400 284.002,182.400 284.427 C 182.400 284.985,182.122 285.200,181.400 285.200 C 180.667 285.200,180.400 285.413,180.400 286.000 C 180.400 286.731,179.967 286.998,179.051 286.831 C 178.859 286.796,178.806 287.039,178.934 287.372 C 179.231 288.147,178.158 289.236,177.388 288.940 C 176.985 288.786,176.800 288.980,176.800 289.557 C 176.800 290.133,176.547 290.400,176.000 290.400 C 175.413 290.400,175.200 290.667,175.200 291.400 C 175.200 292.113,174.984 292.400,174.447 292.400 C 174.030 292.400,173.600 292.757,173.484 293.200 C 173.359 293.679,172.938 294.000,172.437 294.000 C 171.867 294.000,171.600 294.255,171.600 294.800 C 171.600 295.240,171.420 295.623,171.200 295.650 C 170.980 295.678,170.575 295.723,170.301 295.750 C 170.026 295.778,169.801 296.160,169.801 296.600 C 169.800 297.125,169.490 297.444,168.900 297.528 L 168.000 297.656 168.000 284.390 C 168.000 271.462,167.980 271.120,167.200 270.916 C 166.757 270.800,166.400 270.370,166.400 269.953 C 166.400 269.327,166.096 269.200,164.600 269.200 C 163.067 269.200,162.800 269.081,162.800 268.400 C 162.800 267.960,162.575 267.597,162.300 267.594 C 162.025 267.591,144.835 267.593,124.100 267.600 L 86.400 267.612 86.400 166.206 L 86.400 64.800 207.200 64.800 L 328.000 64.800 328.000 144.800 M160.800 106.619 C 160.800 107.333,160.582 107.600,160.000 107.600 C 159.467 107.600,159.200 107.867,159.200 108.400 C 159.200 108.988,158.933 109.200,158.196 109.200 L 157.191 109.200 157.204 161.990 C 157.218 216.722,157.201 216.000,158.443 216.000 C 158.947 216.000,159.200 216.283,159.200 216.847 C 159.200 217.496,159.386 217.645,160.000 217.484 C 160.636 217.318,160.800 217.472,160.800 218.237 L 160.800 219.200 181.200 219.200 C 201.333 219.200,201.600 219.190,201.600 218.400 C 201.600 217.813,201.867 217.600,202.600 217.600 C 203.333 217.600,203.600 217.387,203.600 216.800 C 203.600 216.267,203.867 216.000,204.400 216.000 C 205.196 216.000,205.200 215.733,205.200 162.600 C 205.200 109.467,205.196 109.200,204.400 109.200 C 203.867 109.200,203.600 108.933,203.600 108.400 C 203.600 107.813,203.333 107.600,202.600 107.600 C 201.801 107.600,201.600 107.400,201.600 106.602 L 201.600 105.605 181.200 105.622 L 160.800 105.639 160.800 106.619 M235.862 105.871 C 235.718 106.015,235.600 106.463,235.600 106.867 C 235.600 107.390,235.302 107.600,234.557 107.600 C 233.785 107.600,233.575 107.759,233.750 108.213 C 233.906 108.620,233.652 108.952,232.992 109.203 L 232.000 109.580 232.000 163.590 C 232.000 216.159,232.020 217.600,232.751 217.600 C 233.740 217.600,234.649 218.636,233.917 218.930 C 233.633 219.044,243.075 219.151,254.900 219.168 C 276.144 219.200,276.400 219.190,276.400 218.400 C 276.400 217.813,276.667 217.600,277.400 217.600 C 278.133 217.600,278.400 217.387,278.400 216.800 C 278.400 216.267,278.667 216.000,279.200 216.000 C 279.996 216.000,280.000 215.733,280.000 163.600 C 280.000 111.467,279.996 111.200,279.200 111.200 C 278.519 111.200,278.400 110.933,278.400 109.400 C 278.400 107.760,278.313 107.600,277.428 107.600 C 276.724 107.600,276.420 107.351,276.328 106.700 L 276.200 105.800 256.162 105.705 C 245.141 105.652,236.006 105.727,235.862 105.871 " stroke="none" fill="#6444a4" fill-rule="evenodd"></path><path id="path1" d="M126.100 9.900 C 173.565 9.956,251.235 9.956,298.700 9.900 C 346.165 9.844,307.330 9.798,212.400 9.798 C 117.470 9.798,78.635 9.844,126.100 9.900 M297.600 254.333 C 297.600 254.590,297.195 254.821,296.700 254.846 C 295.959 254.885,295.931 254.927,296.542 255.084 C 297.340 255.289,298.325 254.591,297.873 254.140 C 297.723 253.990,297.600 254.077,297.600 254.333 M105.130 267.500 C 115.542 267.559,132.462 267.559,142.730 267.500 C 152.999 267.440,144.480 267.392,123.800 267.392 C 103.120 267.392,94.719 267.441,105.130 267.500 M224.131 267.500 C 235.532 267.559,254.072 267.559,265.331 267.500 C 276.589 267.441,267.260 267.393,244.600 267.393 C 221.940 267.393,212.729 267.441,224.131 267.500 " stroke="none" fill="#6844a4" fill-rule="evenodd"></path><path id="path2" d="M126.100 9.900 C 173.565 9.956,251.235 9.956,298.700 9.900 C 346.165 9.844,307.330 9.798,212.400 9.798 C 117.470 9.798,78.635 9.844,126.100 9.900 M297.600 254.333 C 297.600 254.590,297.195 254.821,296.700 254.846 C 295.959 254.885,295.931 254.927,296.542 255.084 C 297.340 255.289,298.325 254.591,297.873 254.140 C 297.723 253.990,297.600 254.077,297.600 254.333 M105.130 267.500 C 115.542 267.559,132.462 267.559,142.730 267.500 C 152.999 267.440,144.480 267.392,123.800 267.392 C 103.120 267.392,94.719 267.441,105.130 267.500 M224.131 267.500 C 235.532 267.559,254.072 267.559,265.331 267.500 C 276.589 267.441,267.260 267.393,244.600 267.393 C 221.940 267.393,212.729 267.441,224.131 267.500 " stroke="none" fill="#6844a4" fill-rule="evenodd"></path><path id="path3" d="M126.100 9.900 C 173.565 9.956,251.235 9.956,298.700 9.900 C 346.165 9.844,307.330 9.798,212.400 9.798 C 117.470 9.798,78.635 9.844,126.100 9.900 M297.600 254.333 C 297.600 254.590,297.195 254.821,296.700 254.846 C 295.959 254.885,295.931 254.927,296.542 255.084 C 297.340 255.289,298.325 254.591,297.873 254.140 C 297.723 253.990,297.600 254.077,297.600 254.333 M105.130 267.500 C 115.542 267.559,132.462 267.559,142.730 267.500 C 152.999 267.440,144.480 267.392,123.800 267.392 C 103.120 267.392,94.719 267.441,105.130 267.500 M224.131 267.500 C 235.532 267.559,254.072 267.559,265.331 267.500 C 276.589 267.441,267.260 267.393,244.600 267.393 C 221.940 267.393,212.729 267.441,224.131 267.500 " stroke="none" fill="#6844a4" fill-rule="evenodd"></path><path id="path4" d="M126.100 9.900 C 173.565 9.956,251.235 9.956,298.700 9.900 C 346.165 9.844,307.330 9.798,212.400 9.798 C 117.470 9.798,78.635 9.844,126.100 9.900 M297.600 254.333 C 297.600 254.590,297.195 254.821,296.700 254.846 C 295.959 254.885,295.931 254.927,296.542 255.084 C 297.340 255.289,298.325 254.591,297.873 254.140 C 297.723 253.990,297.600 254.077,297.600 254.333 M105.130 267.500 C 115.542 267.559,132.462 267.559,142.730 267.500 C 152.999 267.440,144.480 267.392,123.800 267.392 C 103.120 267.392,94.719 267.441,105.130 267.500 M224.131 267.500 C 235.532 267.559,254.072 267.559,265.331 267.500 C 276.589 267.441,267.260 267.393,244.600 267.393 C 221.940 267.393,212.729 267.441,224.131 267.500 " stroke="none" fill="#6844a4" fill-rule="evenodd"></path></g></svg>